<?xml version="1.0" encoding="UTF-8"?>
<mxfile host="confluence.tsi-dev.otc-service.com" agent="Mozilla/5.0 (Macintosh; Intel Mac OS X 10.15; rv:132.0) Gecko/20100101 Firefox/132.0" version="24.8.3">
  <diagram id="bBsx1QUYi0gZN7827Dw8" name="Page-1">
    <mxGraphModel dx="2474" dy="1181" grid="1" gridSize="10" guides="1" tooltips="1" connect="1" arrows="1" fold="1" page="0" pageScale="1" pageWidth="850" pageHeight="1100" math="0" shadow="0">
      <root>
        <mxCell id="0" />
        <mxCell id="1" parent="0" />
        <mxCell id="fndhLbghVhNAAoVkmXcJ-6" style="edgeStyle=orthogonalEdgeStyle;rounded=0;orthogonalLoop=1;jettySize=auto;html=1;exitX=0.5;exitY=1;exitDx=0;exitDy=0;entryX=0.5;entryY=0;entryDx=0;entryDy=0;" parent="1" source="fndhLbghVhNAAoVkmXcJ-1" target="fndhLbghVhNAAoVkmXcJ-2" edge="1">
          <mxGeometry relative="1" as="geometry" />
        </mxCell>
        <mxCell id="fndhLbghVhNAAoVkmXcJ-1" value="Component&#39;s &lt;b&gt;&lt;span style=&quot;background-color: rgb(126, 166, 224);&quot;&gt;system&lt;/span&gt; &lt;/b&gt;Event" style="ellipse;whiteSpace=wrap;html=1;" parent="1" vertex="1">
          <mxGeometry x="145" y="160" width="110" height="80" as="geometry" />
        </mxCell>
        <mxCell id="fndhLbghVhNAAoVkmXcJ-7" style="edgeStyle=orthogonalEdgeStyle;rounded=0;orthogonalLoop=1;jettySize=auto;html=1;exitX=0.5;exitY=1;exitDx=0;exitDy=0;entryX=0.5;entryY=0;entryDx=0;entryDy=0;" parent="1" source="fndhLbghVhNAAoVkmXcJ-2" target="fndhLbghVhNAAoVkmXcJ-4" edge="1">
          <mxGeometry relative="1" as="geometry" />
        </mxCell>
        <mxCell id="fndhLbghVhNAAoVkmXcJ-38" value="same" style="edgeLabel;html=1;align=center;verticalAlign=middle;resizable=0;points=[];" parent="fndhLbghVhNAAoVkmXcJ-7" vertex="1" connectable="0">
          <mxGeometry x="-0.1333" y="2" relative="1" as="geometry">
            <mxPoint as="offset" />
          </mxGeometry>
        </mxCell>
        <mxCell id="fndhLbghVhNAAoVkmXcJ-8" style="edgeStyle=orthogonalEdgeStyle;rounded=0;orthogonalLoop=1;jettySize=auto;html=1;exitX=0;exitY=0.5;exitDx=0;exitDy=0;entryX=0.5;entryY=0;entryDx=0;entryDy=0;" parent="1" source="fndhLbghVhNAAoVkmXcJ-2" target="fndhLbghVhNAAoVkmXcJ-3" edge="1">
          <mxGeometry relative="1" as="geometry" />
        </mxCell>
        <mxCell id="fndhLbghVhNAAoVkmXcJ-37" value="&lt;div&gt;lower&lt;/div&gt;" style="edgeLabel;html=1;align=center;verticalAlign=middle;resizable=0;points=[];" parent="fndhLbghVhNAAoVkmXcJ-8" vertex="1" connectable="0">
          <mxGeometry x="0.6872" y="2" relative="1" as="geometry">
            <mxPoint y="1" as="offset" />
          </mxGeometry>
        </mxCell>
        <mxCell id="fndhLbghVhNAAoVkmXcJ-9" style="edgeStyle=orthogonalEdgeStyle;rounded=0;orthogonalLoop=1;jettySize=auto;html=1;exitX=1;exitY=0.5;exitDx=0;exitDy=0;entryX=0.5;entryY=0;entryDx=0;entryDy=0;" parent="1" source="fndhLbghVhNAAoVkmXcJ-2" target="fndhLbghVhNAAoVkmXcJ-5" edge="1">
          <mxGeometry relative="1" as="geometry" />
        </mxCell>
        <mxCell id="fndhLbghVhNAAoVkmXcJ-39" value="higher" style="edgeLabel;html=1;align=center;verticalAlign=middle;resizable=0;points=[];" parent="fndhLbghVhNAAoVkmXcJ-9" vertex="1" connectable="0">
          <mxGeometry x="0.6872" relative="1" as="geometry">
            <mxPoint y="1" as="offset" />
          </mxGeometry>
        </mxCell>
        <mxCell id="fndhLbghVhNAAoVkmXcJ-2" value="Severity is &#x9;&lt;br&gt;lower/same/higher &lt;br&gt;&lt;span style=&quot;&quot;&gt;&lt;span style=&quot;white-space: pre;&quot;&gt;&amp;nbsp;&amp;nbsp;&amp;nbsp;&amp;nbsp;&lt;/span&gt;&lt;/span&gt;than existing &lt;br&gt;&lt;b&gt;&lt;span style=&quot;background-color: rgb(250 , 150 , 70)&quot;&gt;user &lt;/span&gt;&lt;/b&gt;incident?" style="rhombus;whiteSpace=wrap;html=1;" parent="1" vertex="1">
          <mxGeometry x="132.5" y="270" width="135" height="140" as="geometry" />
        </mxCell>
        <mxCell id="fndhLbghVhNAAoVkmXcJ-3" value="Do nothing" style="rounded=1;whiteSpace=wrap;html=1;" parent="1" vertex="1">
          <mxGeometry x="-10" y="460" width="120" height="90" as="geometry" />
        </mxCell>
        <mxCell id="fndhLbghVhNAAoVkmXcJ-4" value="Do nothing" style="rounded=1;whiteSpace=wrap;html=1;" parent="1" vertex="1">
          <mxGeometry x="140" y="460" width="120" height="90" as="geometry" />
        </mxCell>
        <mxCell id="fndhLbghVhNAAoVkmXcJ-5" value="&lt;span style=&quot;background-color: rgb(255, 213, 0);&quot;&gt;Increase existing user incident severity&lt;/span&gt;" style="rounded=1;whiteSpace=wrap;html=1;" parent="1" vertex="1">
          <mxGeometry x="290" y="460" width="120" height="90" as="geometry" />
        </mxCell>
        <mxCell id="fndhLbghVhNAAoVkmXcJ-10" style="edgeStyle=orthogonalEdgeStyle;rounded=0;orthogonalLoop=1;jettySize=auto;html=1;exitX=0.5;exitY=1;exitDx=0;exitDy=0;entryX=0.5;entryY=0;entryDx=0;entryDy=0;" parent="1" source="fndhLbghVhNAAoVkmXcJ-11" target="fndhLbghVhNAAoVkmXcJ-15" edge="1">
          <mxGeometry relative="1" as="geometry" />
        </mxCell>
        <mxCell id="fndhLbghVhNAAoVkmXcJ-11" value="Component&#39;s &lt;b&gt;&lt;span style=&quot;background-color: rgb(126, 166, 224);&quot;&gt;system&lt;/span&gt; &lt;/b&gt;Event" style="ellipse;whiteSpace=wrap;html=1;" parent="1" vertex="1">
          <mxGeometry x="645" y="160" width="110" height="80" as="geometry" />
        </mxCell>
        <mxCell id="fndhLbghVhNAAoVkmXcJ-12" style="edgeStyle=orthogonalEdgeStyle;rounded=0;orthogonalLoop=1;jettySize=auto;html=1;exitX=0.5;exitY=1;exitDx=0;exitDy=0;entryX=0.5;entryY=0;entryDx=0;entryDy=0;" parent="1" source="fndhLbghVhNAAoVkmXcJ-15" target="fndhLbghVhNAAoVkmXcJ-17" edge="1">
          <mxGeometry relative="1" as="geometry" />
        </mxCell>
        <mxCell id="fndhLbghVhNAAoVkmXcJ-41" value="same" style="edgeLabel;html=1;align=center;verticalAlign=middle;resizable=0;points=[];" parent="fndhLbghVhNAAoVkmXcJ-12" vertex="1" connectable="0">
          <mxGeometry x="-0.0667" y="-1" relative="1" as="geometry">
            <mxPoint as="offset" />
          </mxGeometry>
        </mxCell>
        <mxCell id="fndhLbghVhNAAoVkmXcJ-13" style="edgeStyle=orthogonalEdgeStyle;rounded=0;orthogonalLoop=1;jettySize=auto;html=1;exitX=0;exitY=0.5;exitDx=0;exitDy=0;entryX=0.5;entryY=0;entryDx=0;entryDy=0;" parent="1" source="fndhLbghVhNAAoVkmXcJ-15" target="fndhLbghVhNAAoVkmXcJ-16" edge="1">
          <mxGeometry relative="1" as="geometry" />
        </mxCell>
        <mxCell id="fndhLbghVhNAAoVkmXcJ-40" value="lower" style="edgeLabel;html=1;align=center;verticalAlign=middle;resizable=0;points=[];" parent="fndhLbghVhNAAoVkmXcJ-13" vertex="1" connectable="0">
          <mxGeometry x="0.7037" y="-1" relative="1" as="geometry">
            <mxPoint y="1" as="offset" />
          </mxGeometry>
        </mxCell>
        <mxCell id="fndhLbghVhNAAoVkmXcJ-14" style="edgeStyle=orthogonalEdgeStyle;rounded=0;orthogonalLoop=1;jettySize=auto;html=1;exitX=1;exitY=0.5;exitDx=0;exitDy=0;entryX=0.5;entryY=0;entryDx=0;entryDy=0;" parent="1" source="fndhLbghVhNAAoVkmXcJ-15" target="fndhLbghVhNAAoVkmXcJ-18" edge="1">
          <mxGeometry relative="1" as="geometry" />
        </mxCell>
        <mxCell id="fndhLbghVhNAAoVkmXcJ-42" value="higher" style="edgeLabel;html=1;align=center;verticalAlign=middle;resizable=0;points=[];" parent="fndhLbghVhNAAoVkmXcJ-14" vertex="1" connectable="0">
          <mxGeometry x="0.7202" relative="1" as="geometry">
            <mxPoint y="-1" as="offset" />
          </mxGeometry>
        </mxCell>
        <mxCell id="fndhLbghVhNAAoVkmXcJ-15" value="Severity is &#x9;&lt;br&gt;lower/same/higher &lt;br&gt;&lt;span style=&quot;&quot;&gt;&lt;span style=&quot;white-space: pre;&quot;&gt;&amp;nbsp;&amp;nbsp;&amp;nbsp;&amp;nbsp;&lt;/span&gt;&lt;/span&gt;than existing &lt;br&gt;&lt;b&gt;&lt;span style=&quot;background-color: rgb(160 , 200 , 240)&quot;&gt;system &lt;/span&gt;&lt;/b&gt;incident?" style="rhombus;whiteSpace=wrap;html=1;" parent="1" vertex="1">
          <mxGeometry x="632.5" y="270" width="135" height="140" as="geometry" />
        </mxCell>
        <mxCell id="fndhLbghVhNAAoVkmXcJ-16" value="Do nothing" style="rounded=1;whiteSpace=wrap;html=1;" parent="1" vertex="1">
          <mxGeometry x="490" y="460" width="120" height="90" as="geometry" />
        </mxCell>
        <mxCell id="fndhLbghVhNAAoVkmXcJ-17" value="Do nothing" style="rounded=1;whiteSpace=wrap;html=1;" parent="1" vertex="1">
          <mxGeometry x="640" y="460" width="120" height="90" as="geometry" />
        </mxCell>
        <mxCell id="fndhLbghVhNAAoVkmXcJ-18" value="&lt;span style=&quot;background-color: rgb(255, 234, 0);&quot;&gt;Increase existing system incident severity&lt;/span&gt;" style="rounded=1;whiteSpace=wrap;html=1;" parent="1" vertex="1">
          <mxGeometry x="790" y="460" width="120" height="90" as="geometry" />
        </mxCell>
        <mxCell id="fndhLbghVhNAAoVkmXcJ-19" style="edgeStyle=orthogonalEdgeStyle;rounded=0;orthogonalLoop=1;jettySize=auto;html=1;exitX=0.5;exitY=1;exitDx=0;exitDy=0;entryX=0.5;entryY=0;entryDx=0;entryDy=0;" parent="1" source="fndhLbghVhNAAoVkmXcJ-20" target="fndhLbghVhNAAoVkmXcJ-24" edge="1">
          <mxGeometry relative="1" as="geometry" />
        </mxCell>
        <mxCell id="fndhLbghVhNAAoVkmXcJ-20" value="Component&#39;s&lt;br&gt; &lt;b&gt;&lt;span style=&quot;background-color: rgb(250, 150, 70);&quot;&gt;User&lt;/span&gt; &lt;/b&gt;Event" style="ellipse;whiteSpace=wrap;html=1;" parent="1" vertex="1">
          <mxGeometry x="145" y="620" width="110" height="80" as="geometry" />
        </mxCell>
        <mxCell id="fndhLbghVhNAAoVkmXcJ-21" style="edgeStyle=orthogonalEdgeStyle;rounded=0;orthogonalLoop=1;jettySize=auto;html=1;exitX=0.5;exitY=1;exitDx=0;exitDy=0;entryX=0.5;entryY=0;entryDx=0;entryDy=0;" parent="1" source="fndhLbghVhNAAoVkmXcJ-24" target="fndhLbghVhNAAoVkmXcJ-26" edge="1">
          <mxGeometry relative="1" as="geometry" />
        </mxCell>
        <mxCell id="fndhLbghVhNAAoVkmXcJ-44" value="same" style="edgeLabel;html=1;align=center;verticalAlign=middle;resizable=0;points=[];" parent="fndhLbghVhNAAoVkmXcJ-21" vertex="1" connectable="0">
          <mxGeometry y="2" relative="1" as="geometry">
            <mxPoint as="offset" />
          </mxGeometry>
        </mxCell>
        <mxCell id="fndhLbghVhNAAoVkmXcJ-22" style="edgeStyle=orthogonalEdgeStyle;rounded=0;orthogonalLoop=1;jettySize=auto;html=1;exitX=0;exitY=0.5;exitDx=0;exitDy=0;entryX=0.5;entryY=0;entryDx=0;entryDy=0;" parent="1" source="fndhLbghVhNAAoVkmXcJ-24" target="fndhLbghVhNAAoVkmXcJ-25" edge="1">
          <mxGeometry relative="1" as="geometry" />
        </mxCell>
        <mxCell id="fndhLbghVhNAAoVkmXcJ-43" value="lower" style="edgeLabel;html=1;align=center;verticalAlign=middle;resizable=0;points=[];" parent="fndhLbghVhNAAoVkmXcJ-22" vertex="1" connectable="0">
          <mxGeometry x="0.7202" y="2" relative="1" as="geometry">
            <mxPoint y="-1" as="offset" />
          </mxGeometry>
        </mxCell>
        <mxCell id="fndhLbghVhNAAoVkmXcJ-23" style="edgeStyle=orthogonalEdgeStyle;rounded=0;orthogonalLoop=1;jettySize=auto;html=1;exitX=1;exitY=0.5;exitDx=0;exitDy=0;entryX=0.5;entryY=0;entryDx=0;entryDy=0;" parent="1" source="fndhLbghVhNAAoVkmXcJ-24" target="fndhLbghVhNAAoVkmXcJ-27" edge="1">
          <mxGeometry relative="1" as="geometry" />
        </mxCell>
        <mxCell id="fndhLbghVhNAAoVkmXcJ-45" value="higher" style="edgeLabel;html=1;align=center;verticalAlign=middle;resizable=0;points=[];" parent="fndhLbghVhNAAoVkmXcJ-23" vertex="1" connectable="0">
          <mxGeometry x="0.7037" y="2" relative="1" as="geometry">
            <mxPoint y="3" as="offset" />
          </mxGeometry>
        </mxCell>
        <mxCell id="fndhLbghVhNAAoVkmXcJ-24" value="Severity is &#x9;&lt;br&gt;lower/same/higher &lt;br&gt;&lt;span style=&quot;&quot;&gt;&lt;span style=&quot;white-space: pre;&quot;&gt;&amp;nbsp;&amp;nbsp;&amp;nbsp;&amp;nbsp;&lt;/span&gt;&lt;/span&gt;than existing &lt;br&gt;&lt;b&gt;&lt;span style=&quot;background-color: rgb(250 , 150 , 70)&quot;&gt;user &lt;/span&gt;&lt;/b&gt;incident?" style="rhombus;whiteSpace=wrap;html=1;" parent="1" vertex="1">
          <mxGeometry x="132.5" y="730" width="135" height="140" as="geometry" />
        </mxCell>
        <mxCell id="fndhLbghVhNAAoVkmXcJ-25" value="Create new user incident" style="rounded=1;whiteSpace=wrap;html=1;" parent="1" vertex="1">
          <mxGeometry x="-10" y="920" width="120" height="90" as="geometry" />
        </mxCell>
        <mxCell id="fndhLbghVhNAAoVkmXcJ-26" value="&lt;font style=&quot;font-size: 10px&quot;&gt;Possible move component to new user incident if there&#39;s still at least 1 other component remaining in existing incident&lt;/font&gt;" style="rounded=1;whiteSpace=wrap;html=1;" parent="1" vertex="1">
          <mxGeometry x="140" y="920" width="120" height="90" as="geometry" />
        </mxCell>
        <mxCell id="fndhLbghVhNAAoVkmXcJ-27" value="Create new user incident" style="rounded=1;whiteSpace=wrap;html=1;" parent="1" vertex="1">
          <mxGeometry x="290" y="920" width="120" height="90" as="geometry" />
        </mxCell>
        <mxCell id="fndhLbghVhNAAoVkmXcJ-28" style="edgeStyle=orthogonalEdgeStyle;rounded=0;orthogonalLoop=1;jettySize=auto;html=1;exitX=0.5;exitY=1;exitDx=0;exitDy=0;entryX=0.5;entryY=0;entryDx=0;entryDy=0;" parent="1" source="fndhLbghVhNAAoVkmXcJ-29" target="fndhLbghVhNAAoVkmXcJ-33" edge="1">
          <mxGeometry relative="1" as="geometry" />
        </mxCell>
        <mxCell id="fndhLbghVhNAAoVkmXcJ-29" value="Component&#39;s&lt;br&gt; &lt;b&gt;&lt;span style=&quot;background-color: rgb(250, 150, 70);&quot;&gt;User &lt;/span&gt;&lt;/b&gt;Event" style="ellipse;whiteSpace=wrap;html=1;" parent="1" vertex="1">
          <mxGeometry x="645" y="620" width="110" height="80" as="geometry" />
        </mxCell>
        <mxCell id="fndhLbghVhNAAoVkmXcJ-30" style="edgeStyle=orthogonalEdgeStyle;rounded=0;orthogonalLoop=1;jettySize=auto;html=1;exitX=0.5;exitY=1;exitDx=0;exitDy=0;entryX=0.5;entryY=0;entryDx=0;entryDy=0;" parent="1" source="fndhLbghVhNAAoVkmXcJ-33" target="fndhLbghVhNAAoVkmXcJ-35" edge="1">
          <mxGeometry relative="1" as="geometry" />
        </mxCell>
        <mxCell id="fndhLbghVhNAAoVkmXcJ-47" value="same" style="edgeLabel;html=1;align=center;verticalAlign=middle;resizable=0;points=[];" parent="fndhLbghVhNAAoVkmXcJ-30" vertex="1" connectable="0">
          <mxGeometry x="-0.1333" relative="1" as="geometry">
            <mxPoint y="1" as="offset" />
          </mxGeometry>
        </mxCell>
        <mxCell id="fndhLbghVhNAAoVkmXcJ-31" style="edgeStyle=orthogonalEdgeStyle;rounded=0;orthogonalLoop=1;jettySize=auto;html=1;exitX=0;exitY=0.5;exitDx=0;exitDy=0;entryX=0.5;entryY=0;entryDx=0;entryDy=0;" parent="1" source="fndhLbghVhNAAoVkmXcJ-33" target="fndhLbghVhNAAoVkmXcJ-34" edge="1">
          <mxGeometry relative="1" as="geometry" />
        </mxCell>
        <mxCell id="fndhLbghVhNAAoVkmXcJ-46" value="lower" style="edgeLabel;html=1;align=center;verticalAlign=middle;resizable=0;points=[];" parent="fndhLbghVhNAAoVkmXcJ-31" vertex="1" connectable="0">
          <mxGeometry x="0.7202" y="2" relative="1" as="geometry">
            <mxPoint y="-1" as="offset" />
          </mxGeometry>
        </mxCell>
        <mxCell id="fndhLbghVhNAAoVkmXcJ-32" style="edgeStyle=orthogonalEdgeStyle;rounded=0;orthogonalLoop=1;jettySize=auto;html=1;exitX=1;exitY=0.5;exitDx=0;exitDy=0;entryX=0.5;entryY=0;entryDx=0;entryDy=0;" parent="1" source="fndhLbghVhNAAoVkmXcJ-33" target="fndhLbghVhNAAoVkmXcJ-36" edge="1">
          <mxGeometry relative="1" as="geometry" />
        </mxCell>
        <mxCell id="fndhLbghVhNAAoVkmXcJ-48" value="higher" style="edgeLabel;html=1;align=center;verticalAlign=middle;resizable=0;points=[];" parent="fndhLbghVhNAAoVkmXcJ-32" vertex="1" connectable="0">
          <mxGeometry x="0.7037" y="2" relative="1" as="geometry">
            <mxPoint y="2" as="offset" />
          </mxGeometry>
        </mxCell>
        <mxCell id="fndhLbghVhNAAoVkmXcJ-33" value="Severity is &#x9;&lt;br&gt;lower/same/higher &lt;br&gt;&lt;span style=&quot;&quot;&gt;&lt;span style=&quot;white-space: pre;&quot;&gt;&amp;nbsp;&amp;nbsp;&amp;nbsp;&amp;nbsp;&lt;/span&gt;&lt;/span&gt;than existing &lt;br&gt;&lt;b&gt;&lt;span style=&quot;background-color: rgb(160 , 200 , 240)&quot;&gt;system &lt;/span&gt;&lt;/b&gt;incident?" style="rhombus;whiteSpace=wrap;html=1;" parent="1" vertex="1">
          <mxGeometry x="632.5" y="730" width="135" height="140" as="geometry" />
        </mxCell>
        <mxCell id="fndhLbghVhNAAoVkmXcJ-34" value="Create new user incident" style="rounded=1;whiteSpace=wrap;html=1;" parent="1" vertex="1">
          <mxGeometry x="490" y="920" width="120" height="90" as="geometry" />
        </mxCell>
        <mxCell id="fndhLbghVhNAAoVkmXcJ-35" value="&lt;font style=&quot;font-size: 10px&quot;&gt;Possible move component to new user incident from system incident&lt;/font&gt;" style="rounded=1;whiteSpace=wrap;html=1;" parent="1" vertex="1">
          <mxGeometry x="640" y="920" width="120" height="90" as="geometry" />
        </mxCell>
        <mxCell id="fndhLbghVhNAAoVkmXcJ-36" value="&lt;span style=&quot;color: rgb(0, 0, 0); font-family: Helvetica; font-size: 12px; font-style: normal; font-variant-ligatures: normal; font-variant-caps: normal; font-weight: 400; letter-spacing: normal; orphans: 2; text-align: center; text-indent: 0px; text-transform: none; widows: 2; word-spacing: 0px; -webkit-text-stroke-width: 0px; background-color: rgb(255, 234, 0); text-decoration-thickness: initial; text-decoration-style: initial; text-decoration-color: initial; float: none; display: inline !important;&quot;&gt;Increase existing user incident severity&lt;/span&gt;" style="rounded=1;whiteSpace=wrap;html=1;" parent="1" vertex="1">
          <mxGeometry x="790" y="920" width="120" height="90" as="geometry" />
        </mxCell>
        <mxCell id="ZuJNhF6_fIayXcGOZrWt-1" value="&lt;span style=&quot;background-color: rgb(255, 200, 0);&quot;&gt;This case should not create any new incident - just update the existing one&lt;/span&gt;" style="text;html=1;strokeColor=none;fillColor=none;align=center;verticalAlign=middle;whiteSpace=wrap;rounded=0;" parent="1" vertex="1">
          <mxGeometry x="200" y="710" width="170" height="30" as="geometry" />
        </mxCell>
        <mxCell id="ZuJNhF6_fIayXcGOZrWt-2" value="&lt;ul style=&quot;margin-bottom: 0cm; text-align: start; margin-top: 0cm; font-size: 10px;&quot; type=&quot;disc&quot;&gt;&lt;li style=&quot;margin: 0cm; font-family: Calibri, sans-serif;&quot; class=&quot;MsoListParagraph&quot;&gt;Short Term solution:&lt;/li&gt;&lt;ul style=&quot;margin-bottom: 0cm; margin-top: 0cm;&quot; type=&quot;circle&quot;&gt;&lt;li style=&quot;margin: 0cm; font-family: Calibri, sans-serif;&quot; class=&quot;MsoListParagraph&quot;&gt;&lt;span lang=&quot;EN-US&quot;&gt;As soon as an system created incident gets touched/modified manually the severity should not get at all changed by the system automatically. So the incident incl. severity is “locked” and can just be increased or decreased manually.&lt;/span&gt;&lt;/li&gt;&lt;/ul&gt;&lt;li style=&quot;margin: 0cm; font-family: Calibri, sans-serif;&quot; class=&quot;MsoListParagraph&quot;&gt;&lt;span lang=&quot;EN-US&quot;&gt;Long Term solution:&lt;/span&gt;&lt;/li&gt;&lt;ul style=&quot;margin-bottom: 0cm; margin-top: 0cm;&quot; type=&quot;circle&quot;&gt;&lt;li style=&quot;margin: 0cm; font-family: Calibri, sans-serif;&quot; class=&quot;MsoListParagraph&quot;&gt;&lt;span lang=&quot;EN-US&quot;&gt;As soon as an system created incident gets touched/modified manually the severity should get automatically set to a higher state, if the situation changes to worse.&lt;/span&gt;&lt;/li&gt;&lt;li style=&quot;margin: 0cm; font-family: Calibri, sans-serif;&quot; class=&quot;MsoListParagraph&quot;&gt;&lt;span lang=&quot;EN-US&quot;&gt;Setting the severity to a lower case can only be done manually.&lt;/span&gt;&lt;/li&gt;&lt;li style=&quot;margin: 0cm; font-family: Calibri, sans-serif;&quot; class=&quot;MsoListParagraph&quot;&gt;&lt;span lang=&quot;EN-US&quot;&gt;To give the MoD a point to decide this a status (which severity the system has decided based on the metrics) should be displayed in the edit incident dialogue. This can be taken from the MoD to adapt the status or (if this is for a specific case needed) keep the higher incident.&lt;/span&gt;&lt;/li&gt;&lt;/ul&gt;&lt;/ul&gt;" style="text;html=1;strokeColor=none;fillColor=none;align=center;verticalAlign=middle;whiteSpace=wrap;rounded=0;" parent="1" vertex="1">
          <mxGeometry x="460" y="1070" width="480" height="30" as="geometry" />
        </mxCell>
        <mxCell id="ZuJNhF6_fIayXcGOZrWt-4" value="&lt;font style=&quot;font-size: 28px;&quot;&gt;Single Component Handling&lt;/font&gt;" style="text;html=1;strokeColor=none;fillColor=none;align=center;verticalAlign=middle;whiteSpace=wrap;rounded=0;" parent="1" vertex="1">
          <mxGeometry x="220" y="80" width="475" height="30" as="geometry" />
        </mxCell>
        <mxCell id="ZuJNhF6_fIayXcGOZrWt-56" value="&lt;font style=&quot;font-size: 28px;&quot;&gt;Multiple Component Handling&lt;/font&gt;" style="text;html=1;strokeColor=none;fillColor=none;align=center;verticalAlign=middle;whiteSpace=wrap;rounded=0;" parent="1" vertex="1">
          <mxGeometry x="1370" y="100" width="475" height="30" as="geometry" />
        </mxCell>
        <mxCell id="ZuJNhF6_fIayXcGOZrWt-57" value="" style="endArrow=none;html=1;rounded=0;strokeWidth=7;" parent="1" edge="1">
          <mxGeometry width="50" height="50" relative="1" as="geometry">
            <mxPoint x="1010" y="1150" as="sourcePoint" />
            <mxPoint x="1020" y="10" as="targetPoint" />
          </mxGeometry>
        </mxCell>
        <mxCell id="ZuJNhF6_fIayXcGOZrWt-58" value="&lt;font style=&quot;font-size: 20px;&quot;&gt;By default all &quot;bad&quot; services get collected by severity in the &quot;pool-incident&quot; with the manual possibility to exclude 1 or multiple services into an user-created incident&lt;/font&gt;" style="text;html=1;strokeColor=none;fillColor=none;align=center;verticalAlign=middle;whiteSpace=wrap;rounded=0;" parent="1" vertex="1">
          <mxGeometry x="1272.5" y="160" width="670" height="220" as="geometry" />
        </mxCell>
      </root>
    </mxGraphModel>
  </diagram>
</mxfile>
